<svg xmlns="http://www.w3.org/2000/svg" shape-rendering="geometricPrecision" text-rendering="geometricPrecision" image-rendering="optimizeQuality" fill-rule="evenodd" clip-rule="evenodd" viewBox="0 0 512 449.851"><g fill-rule="nonzero"><path fill="#F13B31" d="M153.143 219.364l-4.867-26.516c15.716-4.737 31.372-7.106 46.96-7.106 6.241 0 11.445.183 15.624.559 4.178.376 8.513 1.31 13.003 2.809 4.49 1.493 8.046 3.55 10.667 6.171 5.988 5.988 8.98 15.157 8.98 27.505 0 12.348-3.491 21.452-10.479 27.317-6.982 5.86-21.704 12.595-44.154 20.206v7.955h52.763v27.219h-95.984v-23.385c0-15.525 3.97-23.486 15.715-33.117 3.367-2.87 7.89-5.614 13.567-8.234a4349.194 4349.194 0 0116.091-7.39c5.05-2.31 9.137-4.211 12.253-5.706v-11.468c-5.613-.627-10.787-.938-15.528-.938-11.474 0-23.016 1.374-34.611 4.119zm144.908-30.818l12.908 31.248h1.873l12.908-31.248h40.599l-26.006 56.503 26.006 60.434h-41.534l-14.034-33.676h-1.681l-13.848 33.676h-39.664l25.447-59.311-25.447-57.626h42.473z"/><path fill="#1A1A1A" d="M477.956 274.897H436.04v-40.378h41.683c-4.776-49.909-26.017-95.008-58.228-129.804l-22.633 22.634-28.547-28.547 21.154-21.154c-33.715-25.269-74.828-41.202-119.51-43.965v29.54h-40.378V34.805c-44.228 5.226-84.484 23.409-116.871 50.645l22.166 22.166-28.547 28.547-22.051-22.05c-27.588 33.353-45.645 74.878-50.001 120.406H70.75v40.378H34.036c2.186 26.217 8.881 51.088 19.302 73.829a222.606 222.606 0 0029.242 47.168l30.803-30.803 28.547 28.548-32.835 32.835-20.227 23.377c-27.687-23.883-50.214-53.642-65.663-87.356C8.307 329.984 0 293.907 0 255.999c0-70.689 28.655-134.69 74.983-181.017C121.309 28.656 185.311 0 256 0c70.69 0 134.691 28.656 181.018 74.982C483.344 121.309 512 185.31 512 255.999c0 36.56-7.734 71.421-21.63 102.996-14.42 32.765-35.501 61.957-61.476 85.798l-14.638-15.905-.001.001-35.25-35.25 28.547-28.548 25.769 25.77a223.69 223.69 0 0026.656-45.244 221.446 221.446 0 0017.979-70.72z"/></g></svg>